<?xml version="1.0" encoding="UTF-8"?>
<svg id="Layer_3" data-name="Layer 3" xmlns="http://www.w3.org/2000/svg" viewBox="0 0 590.7 220.8">
  <defs>
    <style>
      .cls-1 {
        stroke-width: 0px;
      }
    </style>
  </defs>
  <path class="cls-1" d="m34.5,220.8c-5.8,0-11.35-1.1-16.65-3.3-5.3-2.2-9.6-5.3-12.9-9.3-3.3-4-4.95-8.6-4.95-13.8,0-4,1.3-7.65,3.9-10.95,2.6-3.3,6.5-4.95,11.7-4.95,3.8,0,7,1.15,9.6,3.45,2.6,2.3,3.9,5.25,3.9,8.85,0,1.8-.2,3.35-.6,4.65-.4,1.3-.8,2.45-1.2,3.45-.4,1.2-.75,2.3-1.05,3.3-.3,1-.45,2-.45,3,0,2,.75,3.9,2.25,5.7,1.5,1.8,4.25,2.7,8.25,2.7,5.6,0,9.9-1.35,12.9-4.05s5.15-5.95,6.45-9.75c1.3-3.8,2.1-7.5,2.4-11.1.3-3.6.45-6.3.45-8.1V44.4c0-10-.7-17.1-2.1-21.3-1.4-4.2-3.95-6.95-7.65-8.25-3.7-1.3-9.05-2.35-16.05-3.15l-6-.6V3.6l44.4.9h.3l44.4-.9v7.5l-6,.6c-6.8.8-12.1,1.85-15.9,3.15-3.8,1.3-6.4,4.05-7.8,8.25-1.4,4.2-2.1,11.3-2.1,21.3v130.8c0,10.2-1.5,18.3-4.5,24.3s-6.95,10.55-11.85,13.65c-4.9,3.1-10.25,5.15-16.05,6.15-5.8,1-11.5,1.5-17.1,1.5Z"/>
  <path class="cls-1" d="m181.2,220.8c-13,0-23.25-3.25-30.75-9.75s-11.25-16.15-11.25-28.95v-58.2c0-9-.6-15.45-1.8-19.35-1.2-3.9-3.35-6.45-6.45-7.65-3.1-1.2-7.55-2.1-13.35-2.7l-4.8-.6v-6.9l36.9.9,10.5-.3v93.6c0,9.8,2.5,17.3,7.5,22.5,5,5.2,11.8,7.8,20.4,7.8,7.4,0,13.95-1.65,19.65-4.95,5.7-3.3,10.6-7.55,14.7-12.75,4.1-5.2,7.35-10.5,9.75-15.9v-53.7c0-9-.6-15.45-1.8-19.35-1.2-3.9-3.35-6.45-6.45-7.65-3.1-1.2-7.55-2.1-13.35-2.7l-4.8-.6v-6.9l36.9.9,10.5-.3v96.9c0,7.6.95,13.25,2.85,16.95,1.9,3.7,4.7,6.15,8.4,7.35,3.7,1.2,8.25,1.8,13.65,1.8v6.9c-8.2,0-15.7.1-22.5.3-6.8.2-14.6,1.1-23.4,2.7v-27.6c-2,3.2-4.1,6-6.3,8.4-5.2,5.8-11.5,10.55-18.9,14.25-7.4,3.7-16,5.55-25.8,5.55Z"/>
  <path class="cls-1" d="m282.6,218.4v-6.9l4.8-.6c5.8-.8,10.25-1.75,13.35-2.85,3.1-1.1,5.25-3.6,6.45-7.5,1.2-3.9,1.8-10.35,1.8-19.35V34.8c0-10.4-2.15-17.05-6.45-19.95-4.3-2.9-10.25-4.35-17.85-4.35h-2.1V3.6c8.2,0,16.1-.25,23.7-.75,7.6-.5,15.5-1.45,23.7-2.85v107.4c4.6-6.8,11.1-12.85,19.5-18.15,8.4-5.3,18.2-7.95,29.4-7.95,13.6,0,24.35,3.45,32.25,10.35,7.9,6.9,11.85,16.75,11.85,29.55v60c0,9,.6,15.45,1.8,19.35,1.2,3.9,3.35,6.4,6.45,7.5,3.1,1.1,7.55,2.05,13.35,2.85l4.8.6v6.9l-36.9-.9-36.9.9v-6.9l4.8-.6c5.8-.8,10.25-1.75,13.35-2.85,3.1-1.1,5.25-3.6,6.45-7.5,1.2-3.9,1.8-10.35,1.8-19.35v-60c0-10-2.6-17.65-7.8-22.95-5.2-5.3-12.5-7.95-21.9-7.95-7.2,0-13.7,1.65-19.5,4.95-5.8,3.3-10.6,7.35-14.4,12.15-3.8,4.8-6.6,9.4-8.4,13.8v60c0,9,.6,15.45,1.8,19.35,1.2,3.9,3.35,6.4,6.45,7.5,3.1,1.1,7.55,2.05,13.35,2.85l4.8.6v6.9l-36.9-.9-36.9.9Z"/>
  <path class="cls-1" d="m492,220.8c-9.6,0-17.55-2.45-23.85-7.35-6.3-4.9-9.45-11.75-9.45-20.55s3.9-16.65,11.7-23.55c7.8-6.9,16.9-13.15,27.3-18.75,7.8-4.4,15.6-8.2,23.4-11.4,7.8-3.2,14.5-5.9,20.1-8.1v-9.6c0-11-2.05-19.2-6.15-24.6-4.1-5.4-11.85-8.1-23.25-8.1-5.4,0-10.7.7-15.9,2.1-5.2,1.4-7.8,4-7.8,7.8,0,.8.15,1.7.45,2.7.3,1,.55,2,.75,3,1,2.6,1.5,5.3,1.5,8.1,0,3.8-1.35,6.75-4.05,8.85-2.7,2.1-5.95,3.15-9.75,3.15-3.6,0-6.6-1.35-9-4.05-2.4-2.7-3.6-5.95-3.6-9.75,0-7.2,2.75-12.95,8.25-17.25,5.5-4.3,12.25-7.4,20.25-9.3,8-1.9,15.7-2.85,23.1-2.85,16,0,27.7,3.7,35.1,11.1,7.4,7.4,11.1,19.5,11.1,36.3v54c0,8.8.65,15.6,1.95,20.4,1.3,4.8,4.25,7.2,8.85,7.2,3,0,5.6-1.1,7.8-3.3s3.7-4.6,4.5-7.2l5.4,2.1c-1.6,5.8-4.45,10.4-8.55,13.8-4.1,3.4-9.75,5.1-16.95,5.1-8.8,0-14.85-2.55-18.15-7.65-3.3-5.1-5.15-11.85-5.55-20.25-5.6,9-12.7,15.9-21.3,20.7-8.6,4.8-18,7.2-28.2,7.2Zm-9.9-29.4c0,5.6,1.65,10.05,4.95,13.35,3.3,3.3,8.15,4.95,14.55,4.95,5.8,0,11.35-1.4,16.65-4.2,5.3-2.8,9.95-6.35,13.95-10.65,4-4.3,7-8.95,9-13.95v-43.8c-6.6,2.8-13.35,6.05-20.25,9.75-6.9,3.7-13.3,7.85-19.2,12.45-5.9,4.6-10.65,9.55-14.25,14.85-3.6,5.3-5.4,11.05-5.4,17.25Z"/>
</svg>